<svg width="34" height="33" viewBox="0 0 34 33" fill="none" xmlns="http://www.w3.org/2000/svg">
<g id="solar:heart-outline">
<path id="Vector" fill-rule="evenodd" clip-rule="evenodd" d="M6.1965 4.59927C3.84625 5.64152 2.125 8.12202 2.125 11.0796C2.125 14.1005 3.4 16.4298 5.22467 18.4263C6.73058 20.0708 8.55242 21.4348 10.3289 22.763C10.7511 23.0793 11.1704 23.3941 11.5827 23.709C12.3278 24.2796 12.9923 24.7788 13.634 25.1431C14.2743 25.5061 14.79 25.6725 15.2292 25.6725C15.6683 25.6725 16.184 25.5075 16.8243 25.1431C17.4661 24.7788 18.1305 24.2796 18.8757 23.709C19.2865 23.3928 19.7073 23.0793 20.1294 22.7644C21.9059 21.4334 23.7278 20.0708 25.2337 18.4263C27.0598 16.4298 28.3333 14.1005 28.3333 11.0796C28.3333 8.12339 26.6121 5.64152 24.2618 4.59927C21.9782 3.58589 18.9097 3.85402 15.9942 6.79514C15.8951 6.89495 15.7762 6.97434 15.6448 7.02856C15.5133 7.08279 15.372 7.11073 15.2292 7.11073C15.0863 7.11073 14.945 7.08279 14.8135 7.02856C14.6821 6.97434 14.5633 6.89495 14.4642 6.79514C11.5487 3.85402 8.48017 3.58589 6.1965 4.59927ZM15.2292 4.64877C11.9538 1.80252 8.28608 1.40377 5.3125 2.72239C2.176 4.11802 0 7.35202 0 11.081C0 14.7454 1.5725 17.5421 3.63658 19.7971C5.28842 21.6025 7.31 23.1136 9.09642 24.4474C9.50158 24.7499 9.894 25.0441 10.2666 25.3301C10.9933 25.8856 11.7725 26.4769 12.5616 26.9251C13.3507 27.372 14.2517 27.7364 15.2292 27.7364C16.2067 27.7364 17.1077 27.372 17.8968 26.9251C18.6873 26.4769 19.465 25.8856 20.1918 25.3301C20.5798 25.0334 20.9699 24.7391 21.3619 24.4474C23.1469 23.1136 25.1699 21.6011 26.8218 19.7971C28.8858 17.5421 30.4583 14.7454 30.4583 11.081C30.4583 7.35202 28.2838 4.11802 25.1458 2.72514C22.1723 1.40514 18.5045 1.80389 15.2292 4.64877Z" fill="black"/>
</g>
</svg>
