<svg width="34" height="34" viewBox="0 0 34 34" fill="none" xmlns="http://www.w3.org/2000/svg">
<g id="basil:chat-solid">
<path id="Vector" fill-rule="evenodd" clip-rule="evenodd" d="M11.3362 6.45013C15.1561 6.16228 18.9929 6.18123 22.8097 6.5068L25.1104 6.7023C25.9544 6.77448 26.7497 7.1283 27.3684 7.70691C27.9871 8.28553 28.3933 9.05533 28.5217 9.89263L28.6662 10.8404C29.1588 14.0532 29.1128 17.3256 28.5302 20.5233C28.3909 21.2878 27.9878 21.9792 27.3911 22.477C26.7944 22.9749 26.0419 23.2475 25.2648 23.2476H12.5488C12.2556 23.2476 11.968 23.3198 11.7102 23.4586L6.16958 26.4365C6.00768 26.5235 5.82597 26.567 5.64222 26.5627C5.45847 26.5585 5.27896 26.5067 5.12123 26.4123C4.96349 26.318 4.83294 26.1843 4.74231 26.0244C4.65168 25.8645 4.60408 25.6838 4.60416 25.5V13.4343C4.60453 11.6732 5.27018 9.97728 6.46782 8.68612C7.66546 7.39496 9.30666 6.60391 11.0627 6.47138L11.3362 6.45013ZM11.3333 13.4584C10.8637 13.4584 10.4133 13.645 10.0812 13.977C9.74907 14.3091 9.5625 14.7596 9.5625 15.2292C9.5625 15.6989 9.74907 16.1493 10.0812 16.4814C10.4133 16.8135 10.8637 17 11.3333 17C11.803 17 12.2534 16.8135 12.5855 16.4814C12.9176 16.1493 13.1042 15.6989 13.1042 15.2292C13.1042 14.7596 12.9176 14.3091 12.5855 13.977C12.2534 13.645 11.803 13.4584 11.3333 13.4584ZM17 13.4584C16.5303 13.4584 16.0799 13.645 15.7478 13.977C15.4157 14.3091 15.2292 14.7596 15.2292 15.2292C15.2292 15.6989 15.4157 16.1493 15.7478 16.4814C16.0799 16.8135 16.5303 17 17 17C17.4697 17 17.9201 16.8135 18.2522 16.4814C18.5843 16.1493 18.7708 15.6989 18.7708 15.2292C18.7708 14.7596 18.5843 14.3091 18.2522 13.977C17.9201 13.645 17.4697 13.4584 17 13.4584ZM20.8958 15.2292C20.8958 14.7596 21.0824 14.3091 21.4145 13.977C21.7466 13.645 22.197 13.4584 22.6667 13.4584C23.1363 13.4584 23.5867 13.645 23.9188 13.977C24.2509 14.3091 24.4375 14.7596 24.4375 15.2292C24.4375 15.6989 24.2509 16.1493 23.9188 16.4814C23.5867 16.8135 23.1363 17 22.6667 17C22.197 17 21.7466 16.8135 21.4145 16.4814C21.0824 16.1493 20.8958 15.6989 20.8958 15.2292Z" fill="black"/>
</g>
</svg>
