<svg width="36" height="36" viewBox="0 0 36 36" fill="none" xmlns="http://www.w3.org/2000/svg">
<path d="M29.2275 30.2309L19.8345 20.8379C19.0845 21.4769 18.222 21.9714 17.247 22.3214C16.272 22.6714 15.292 22.8464 14.307 22.8464C11.905 22.8464 9.87201 22.0149 8.20801 20.3519C6.54401 18.6879 5.71201 16.6554 5.71201 14.2544C5.71201 11.8534 6.54301 9.81994 8.20501 8.15394C9.86801 6.48694 11.9 5.65344 14.301 5.65344C16.703 5.65344 18.737 6.48544 20.403 8.14944C22.069 9.81344 22.902 11.8469 22.902 14.2499C22.902 15.2919 22.7175 16.3004 22.3485 17.2754C21.9785 18.2504 21.4935 19.0844 20.8935 19.7774L30.2865 29.1689L29.2275 30.2309ZM14.307 21.3449C16.297 21.3449 17.9775 20.6599 19.3485 19.2899C20.7185 17.9199 21.4035 16.2394 21.4035 14.2484C21.4035 12.2584 20.7185 10.5784 19.3485 9.20844C17.9785 7.83844 16.2985 7.15344 14.3085 7.15344C12.3185 7.15344 10.638 7.83844 9.26701 9.20844C7.89701 10.5784 7.21201 12.2584 7.21201 14.2484C7.21201 16.2384 7.89701 17.9184 9.26701 19.2884C10.637 20.6584 12.317 21.3449 14.307 21.3449Z" fill="black"/>
</svg>
