<svg width="37" height="40" viewBox="0 0 37 40" fill="none" xmlns="http://www.w3.org/2000/svg">
<path d="M29.2917 13.75H18.5C18.1933 13.75 17.8992 13.6183 17.6824 13.3839C17.4656 13.1495 17.3437 12.8315 17.3437 12.5C17.3437 12.1685 17.4656 11.8505 17.6824 11.6161C17.8992 11.3817 18.1933 11.25 18.5 11.25H29.2917C29.5983 11.25 29.8924 11.3817 30.1093 11.6161C30.3261 11.8505 30.4479 12.1685 30.4479 12.5C30.4479 12.8315 30.3261 13.1495 30.1093 13.3839C29.8924 13.6183 29.5983 13.75 29.2917 13.75ZM15.4167 13.75H7.70833C7.40167 13.75 7.10757 13.6183 6.89074 13.3839C6.6739 13.1495 6.55208 12.8315 6.55208 12.5C6.55208 12.1685 6.6739 11.8505 6.89074 11.6161C7.10757 11.3817 7.40167 11.25 7.70833 11.25H15.4167C15.7233 11.25 16.0174 11.3817 16.2343 11.6161C16.4511 11.8505 16.5729 12.1685 16.5729 12.5C16.5729 12.8315 16.4511 13.1495 16.2343 13.3839C16.0174 13.6183 15.7233 13.75 15.4167 13.75Z" fill="black"/>
<path d="M15.4167 16.25C15.1112 16.2457 14.8195 16.1126 14.6035 15.8791C14.3875 15.6456 14.2644 15.3302 14.2604 15V10C14.2604 9.66848 14.3822 9.35054 14.5991 9.11612C14.8159 8.8817 15.11 8.75 15.4167 8.75C15.7233 8.75 16.0174 8.8817 16.2343 9.11612C16.4511 9.35054 16.5729 9.66848 16.5729 10V15C16.5689 15.3302 16.4458 15.6456 16.2298 15.8791C16.0139 16.1126 15.7221 16.2457 15.4167 16.25ZM29.2917 28.75H18.5C18.1933 28.75 17.8992 28.6183 17.6824 28.3839C17.4656 28.1495 17.3437 27.8315 17.3437 27.5C17.3437 27.1685 17.4656 26.8505 17.6824 26.6161C17.8992 26.3817 18.1933 26.25 18.5 26.25H29.2917C29.5983 26.25 29.8924 26.3817 30.1093 26.6161C30.3261 26.8505 30.4479 27.1685 30.4479 27.5C30.4479 27.8315 30.3261 28.1495 30.1093 28.3839C29.8924 28.6183 29.5983 28.75 29.2917 28.75ZM15.4167 28.75H7.70833C7.40167 28.75 7.10757 28.6183 6.89074 28.3839C6.6739 28.1495 6.55208 27.8315 6.55208 27.5C6.55208 27.1685 6.6739 26.8505 6.89074 26.6161C7.10757 26.3817 7.40167 26.25 7.70833 26.25H15.4167C15.7233 26.25 16.0174 26.3817 16.2343 26.6161C16.4511 26.8505 16.5729 27.1685 16.5729 27.5C16.5729 27.8315 16.4511 28.1495 16.2343 28.3839C16.0174 28.6183 15.7233 28.75 15.4167 28.75Z" fill="black"/>
<path d="M15.4167 31.25C15.1112 31.2457 14.8195 31.1126 14.6035 30.8791C14.3875 30.6456 14.2644 30.3302 14.2604 30V25C14.2604 24.6685 14.3822 24.3505 14.5991 24.1161C14.8159 23.8817 15.11 23.75 15.4167 23.75C15.7233 23.75 16.0174 23.8817 16.2343 24.1161C16.4511 24.3505 16.5729 24.6685 16.5729 25V30C16.5689 30.3302 16.4458 30.6456 16.2298 30.8791C16.0139 31.1126 15.7221 31.2457 15.4167 31.25ZM29.2917 21.25H24.6667C24.36 21.25 24.0659 21.1183 23.8491 20.8839C23.6322 20.6495 23.5104 20.3315 23.5104 20C23.5104 19.6685 23.6322 19.3505 23.8491 19.1161C24.0659 18.8817 24.36 18.75 24.6667 18.75H29.2917C29.5983 18.75 29.8924 18.8817 30.1093 19.1161C30.3261 19.3505 30.4479 19.6685 30.4479 20C30.4479 20.3315 30.3261 20.6495 30.1093 20.8839C29.8924 21.1183 29.5983 21.25 29.2917 21.25ZM21.5833 21.25H7.70833C7.40167 21.25 7.10757 21.1183 6.89074 20.8839C6.6739 20.6495 6.55208 20.3315 6.55208 20C6.55208 19.6685 6.6739 19.3505 6.89074 19.1161C7.10757 18.8817 7.40167 18.75 7.70833 18.75H21.5833C21.89 18.75 22.1841 18.8817 22.4009 19.1161C22.6178 19.3505 22.7396 19.6685 22.7396 20C22.7396 20.3315 22.6178 20.6495 22.4009 20.8839C22.1841 21.1183 21.89 21.25 21.5833 21.25Z" fill="black"/>
<path d="M21.5833 23.75C21.2779 23.7457 20.9861 23.6126 20.7702 23.3791C20.5542 23.1456 20.4311 22.8302 20.4271 22.5V17.5C20.4271 17.1685 20.5489 16.8505 20.7657 16.6161C20.9826 16.3817 21.2767 16.25 21.5833 16.25C21.89 16.25 22.1841 16.3817 22.4009 16.6161C22.6178 16.8505 22.7396 17.1685 22.7396 17.5V22.5C22.7356 22.8302 22.6125 23.1456 22.3965 23.3791C22.1805 23.6126 21.8887 23.7457 21.5833 23.75Z" fill="black"/>
</svg>
