<svg width="34" height="34" viewBox="0 0 34 34" fill="none" xmlns="http://www.w3.org/2000/svg">
<g id="uil:user">
<path id="Vector" d="M22.2558 18.0058C23.6447 16.9131 24.6585 15.4147 25.1561 13.7189C25.6537 12.0232 25.6104 10.2146 25.0322 8.54459C24.454 6.87463 23.3697 5.4264 21.9301 4.40139C20.4905 3.37638 18.7672 2.82556 17 2.82556C15.2328 2.82556 13.5095 3.37638 12.0699 4.40139C10.6303 5.4264 9.54598 6.87463 8.9678 8.54459C8.38961 10.2146 8.3463 12.0232 8.84391 13.7189C9.34151 15.4147 10.3553 16.9131 11.7442 18.0058C9.36427 18.9593 7.28774 20.5408 5.73593 22.5816C4.18412 24.6224 3.21521 27.046 2.9325 29.5942C2.91203 29.7802 2.92841 29.9685 2.9807 30.1482C3.03299 30.3279 3.12016 30.4955 3.23724 30.6416C3.47369 30.9365 3.81761 31.1253 4.19333 31.1667C4.56905 31.208 4.94581 31.0984 5.24071 30.8619C5.53561 30.6255 5.7245 30.2816 5.76583 29.9058C6.07691 27.1365 7.39738 24.5789 9.47497 22.7216C11.5526 20.8644 14.2416 19.8376 17.0283 19.8376C19.8151 19.8376 22.5041 20.8644 24.5817 22.7216C26.6593 24.5789 27.9797 27.1365 28.2908 29.9058C28.3293 30.2539 28.4954 30.5754 28.7571 30.8083C29.0187 31.0411 29.3573 31.1688 29.7075 31.1667H29.8633C30.2347 31.1239 30.5741 30.9362 30.8076 30.6443C31.0411 30.3524 31.1498 29.98 31.11 29.6083C30.8259 27.053 29.8518 24.6231 28.292 22.5791C26.7322 20.5352 24.6456 18.9543 22.2558 18.0058ZM17 17C15.8792 17 14.7836 16.6677 13.8518 16.045C12.9199 15.4223 12.1936 14.5373 11.7647 13.5019C11.3358 12.4664 11.2236 11.3271 11.4422 10.2278C11.6609 9.12861 12.2006 8.11891 12.9931 7.32641C13.7856 6.53391 14.7953 5.99421 15.8945 5.77556C16.9937 5.55691 18.1331 5.66913 19.1685 6.09803C20.204 6.52693 21.089 7.25324 21.7117 8.18512C22.3343 9.11699 22.6667 10.2126 22.6667 11.3333C22.6667 12.8362 22.0696 14.2776 21.0069 15.3403C19.9442 16.403 18.5029 17 17 17Z" fill="black"/>
</g>
</svg>
